<?xml version="1.0" encoding="utf-8"?>
<!-- Generator: Adobe Illustrator 19.0.0, SVG Export Plug-In . SVG Version: 6.00 Build 0)  -->
<svg version="1.1" id="Camada_1" xmlns="http://www.w3.org/2000/svg" xmlns:xlink="http://www.w3.org/1999/xlink" x="0px" y="0px"
	 viewBox="-238.4 324.2 100 85" style="enable-background:new -238.4 324.2 100 85;" xml:space="preserve">
<style type="text/css">
	.st0{fill:#ffffff;}
</style>
<g>
	<path class="st0" d="M-204.3,326.6c-11.1,9.2-17.1,22.6-17.1,36.9c0,3.7,0.5,6.5,0.9,8.3c2.3-1.8,5.1-2.3,7.4-2.3
		c11.1,0,17.1,8.8,17.1,18.4c0,11.5-7.8,20.3-19.4,20.3c-11.1,0-23-7.8-23-28.1c0-18.9,10.1-41.9,31.8-54.8L-204.3,326.6z
		 M-146.2,326.6c-11.5,9.2-17.5,22.6-17.5,36.9c0,3.7,0.5,6.5,0.9,8.3c2.3-1.8,5.1-2.3,7.8-2.3c10.6,0,16.6,8.8,16.6,18.4
		c0,11.5-7.8,20.3-19.4,20.3c-10.6,0-22.6-7.4-22.6-28.1c0-18.9,9.7-41.9,31.3-54.8L-146.2,326.6z"/>
</g>
</svg>
